<?xml version="1.0" encoding="UTF-8"?>
<svg width="100pt" height="100pt" version="1.1" viewBox="0 0 100 100" xmlns="http://www.w3.org/2000/svg">
 <g>
  <path d="m48.695 96.676c0.42188 0.13281 0.86328 0.19922 1.3047 0.19922 0.42969 0 0.85938-0.066406 1.2734-0.19141 6.2812-1.8008 12.219-4.6406 17.562-8.4023 0.65625-0.51172 0.79687-1.4531 0.31641-2.1367-0.48438-0.67969-1.418-0.86328-2.1211-0.41016-5.0664 3.5625-10.695 6.25-16.648 7.9531-0.25781 0.082031-0.53906 0.082031-0.79687 0-7.7773-2.207-14.969-6.1094-21.062-11.426-0.30469-0.30078-0.72266-0.46094-1.1523-0.44922-0.42969 0.015625-0.83594 0.21094-1.1172 0.53125-0.28516 0.32422-0.42188 0.75-0.38281 1.1758 0.039062 0.42969 0.25391 0.82031 0.59375 1.0859 6.4297 5.6133 14.02 9.7344 22.23 12.07z"/>
  <path d="m8.7031 23.52c-0.41406-0.054687-0.82812 0.054688-1.1562 0.30859-0.33203 0.25-0.54688 0.625-0.60156 1.0352-1.1016 8.2344-2.4141 29.355 9.1484 47.605 0.46094 0.73047 1.4258 0.94922 2.1562 0.48438 0.73047-0.46094 0.94531-1.4258 0.48438-2.1562-11.016-17.383-9.75-37.625-8.6953-45.523v0.003906c0.11719-0.85547-0.48437-1.6406-1.3359-1.7578z"/>
  <path d="m20.375 75.855c-0.32422 0.25781-0.53125 0.63672-0.57422 1.0508-0.046875 0.41016 0.074219 0.82422 0.33594 1.1484 0.46875 0.58203 0.96875 1.1641 1.4844 1.7422 0.57422 0.64844 1.5625 0.70703 2.2109 0.13672 0.30859-0.27734 0.5-0.66406 0.52344-1.0781 0.023437-0.41406-0.11328-0.82031-0.39062-1.1328-0.48438-0.54688-0.95312-1.0938-1.3906-1.6328l0.003906 0.003906c-0.26172-0.32812-0.64062-0.53516-1.0547-0.57812-0.41406-0.042969-0.82813 0.078125-1.1484 0.33984z"/>
  <path d="m89.043 19.719c-5.6758-0.98828-11.238-2.5508-16.598-4.6641-7.0156-2.7773-13.625-6.4727-19.664-10.992-1.6484-1.2383-3.918-1.2383-5.5664 0-3.0078 2.25-6.1602 4.3008-9.4375 6.1367-0.36328 0.20312-0.62891 0.54297-0.74219 0.94141-0.11328 0.39844-0.0625 0.82812 0.14062 1.1875 0.20312 0.36328 0.54297 0.62891 0.94141 0.74219 0.39844 0.10938 0.82812 0.058594 1.1875-0.14453 3.3984-1.9102 6.668-4.0391 9.7891-6.3789 0.53516-0.41016 1.2773-0.41016 1.8086 0 6.2617 4.6914 13.121 8.5273 20.395 11.406 5.5625 2.1953 11.336 3.8203 17.227 4.8438 0.65625 0.11328 1.1641 0.64062 1.25 1.3047 1.0039 6.6016 2.5352 23.73-4.9531 40.102-0.17969 0.375-0.20312 0.8125-0.058593 1.2031 0.14062 0.39453 0.4375 0.71484 0.81641 0.89062 0.38281 0.17188 0.81641 0.1875 1.207 0.039063 0.39062-0.14844 0.70703-0.44922 0.875-0.83203 7.8398-17.137 6.25-34.992 5.2031-41.875-0.28906-1.9961-1.832-3.5742-3.8203-3.9102z"/>
  <path d="m48.492 85.668c0.48437 0.17578 0.99219 0.26953 1.5078 0.26953 0.50781 0 1.0078-0.089844 1.4844-0.26562 2.1562-0.75781 4.2578-1.6602 6.2891-2.7031 0.76953-0.39453 1.0703-1.3359 0.67578-2.1055s-1.3359-1.0703-2.1055-0.67578c-1.9102 0.98438-3.8867 1.8359-5.9141 2.5469-0.28516 0.11328-0.59766 0.11328-0.88281 0-7.0039-2.3984-13.301-6.5078-18.32-11.953-11.793-12.859-12.832-30.078-12.406-39.164h0.003907c0.015625-0.24219 0.074219-0.48047 0.17969-0.69922 0.3125-0.76562-0.023437-1.6445-0.76953-2.0039-0.74609-0.35547-1.6445-0.070312-2.043 0.65234-0.28125 0.58984-0.44141 1.2266-0.48047 1.875-0.45313 9.6055 0.66406 27.766 13.219 41.457 5.3594 5.8164 12.082 10.203 19.562 12.77z"/>
  <path d="m78.711 57.812c0.16797 0.0625 0.35156 0.097656 0.53516 0.097656 0.65625 0 1.2422-0.41016 1.4648-1.0273 2.8477-8.168 4.0625-16.812 3.5781-25.449-0.058593-1.2734-0.62891-2.4727-1.5781-3.3281-0.30078-0.30859-0.71484-0.48438-1.1484-0.47656-0.43359 0.007813-0.84375 0.19531-1.1328 0.51562-0.28906 0.32422-0.43359 0.75-0.39844 1.1836 0.039062 0.42969 0.25391 0.82812 0.59375 1.0938 0.33203 0.30078 0.52734 0.71875 0.54688 1.1641 0.46484 8.2188-0.6875 16.445-3.3906 24.219-0.14062 0.39062-0.125 0.82031 0.046875 1.1953 0.17578 0.37891 0.49219 0.66797 0.88281 0.8125z"/>
  <path d="m49.391 17.316c0.44922-0.20312 0.97266-0.16406 1.3867 0.10156 4.4961 2.9023 9.2305 5.4219 14.152 7.5273 0.78516 0.30859 1.6719-0.0625 2.0039-0.83984 0.33203-0.77344-0.011719-1.6758-0.77734-2.0312-4.7578-2.0391-9.3359-4.4766-13.688-7.2852-1.2969-0.83203-2.9258-0.95703-4.3359-0.33203-0.74219 0.37109-1.0625 1.2617-0.73047 2.0234 0.33203 0.75781 1.2031 1.1289 1.9805 0.83594z"/>
  <path d="m74.203 28.398c0.14453 0.042968 0.29688 0.066406 0.44922 0.066406 0.77734 0 1.4336-0.57031 1.5469-1.3359 0.10938-0.76953-0.35547-1.5-1.0977-1.7227-0.75391-0.22656-1.5078-0.48438-2.2617-0.75391l-0.003906-0.003906c-0.38672-0.14063-0.81641-0.11719-1.1914 0.058593s-0.66797 0.49219-0.80859 0.88281c-0.28906 0.8125 0.12891 1.707 0.94141 2 0.80859 0.29297 1.6172 0.56641 2.4258 0.80859z"/>
  <path d="m41.578 46.062c-1.9297-1.8906-5.0195-1.8906-6.9531 0l-1.957 1.9961c-1.8906 1.9531-1.8906 5.0547 0 7.0078l11.973 12.219v-0.003906c0.91406 0.94141 2.168 1.4688 3.4766 1.4688 1.3086 0 2.5625-0.52734 3.4766-1.4688l21.988-22.438c1.8906-1.9531 1.8906-5.0547 0-7.0078l-1.957-1.9922c-0.91016-0.94141-2.1641-1.4727-3.4766-1.4688-1.3086-0.003906-2.5625 0.52734-3.4766 1.4688l-15.312 15.625c-0.6875 0.67969-1.7969 0.67969-2.4883 0zm10.016 7.5898 15.312-15.625c0.32422-0.33594 0.77344-0.52734 1.2461-0.52734 0.46875 0 0.91797 0.19141 1.2422 0.52734l1.957 1.9961c0.71094 0.73437 0.71094 1.8984 0 2.6328l-21.992 22.441c-0.6875 0.67969-1.7969 0.67969-2.4844 0l-11.973-12.219c-0.71094-0.73438-0.71094-1.8984 0-2.6328l1.957-1.9961c0.6875-0.67969 1.7969-0.67969 2.4883 0l5.293 5.4023c1.9336 1.8906 5.0195 1.8906 6.9531 0z"/>
  <path d="m14.062 21.875c0 0.75391 0.53906 1.3984 1.2812 1.5352 9.9062 1.8242 10.984 2.9023 12.812 12.812 0.13672 0.74219 0.78125 1.2773 1.5352 1.2773 0.75 0 1.3984-0.53516 1.5352-1.2773 1.8242-9.9062 2.9023-10.984 12.812-12.812 0.73828-0.13672 1.2773-0.78125 1.2773-1.5352s-0.53906-1.3984-1.2773-1.5352c-9.9062-1.8242-10.984-2.9023-12.812-12.812-0.13672-0.74219-0.78516-1.2773-1.5352-1.2773-0.75391 0-1.3984 0.53516-1.5352 1.2773-1.8242 9.9062-2.9023 10.984-12.812 12.812-0.74219 0.13672-1.2812 0.78125-1.2812 1.5352zm15.625-7.3594c0.94531 3.6016 3.7578 6.4141 7.3594 7.3594-3.6016 0.94531-6.4141 3.7578-7.3594 7.3594-0.94531-3.6016-3.7578-6.4141-7.3594-7.3594 3.6016-0.94531 6.4141-3.7578 7.3594-7.3594z"/>
  <path d="m92.469 76.59c-9.9062-1.8242-10.984-2.9023-12.812-12.812-0.13672-0.74219-0.78125-1.2773-1.5352-1.2773-0.75 0-1.3984 0.53516-1.5352 1.2773-1.8242 9.9062-2.9023 10.984-12.812 12.812-0.73828 0.13672-1.2773 0.78125-1.2773 1.5352s0.53906 1.3984 1.2773 1.5352c9.9062 1.8242 10.984 2.9023 12.812 12.812 0.13672 0.74219 0.78516 1.2773 1.5352 1.2773 0.75391 0 1.3984-0.53516 1.5352-1.2773 1.8242-9.9062 2.9023-10.984 12.812-12.812 0.74219-0.13672 1.2773-0.78125 1.2773-1.5352s-0.53516-1.3984-1.2773-1.5352zm-14.344 8.8945c-0.94531-3.6016-3.7578-6.4141-7.3594-7.3594 3.6016-0.94531 6.4141-3.7578 7.3594-7.3594 0.94531 3.6016 3.7578 6.4141 7.3594 7.3594-3.6016 0.94531-6.4141 3.7578-7.3594 7.3594z"/>
 </g>
</svg>
