<?xml version="1.0" encoding="UTF-8"?>
<svg width="100pt" height="100pt" version="1.1" viewBox="0 0 100 100" xmlns="http://www.w3.org/2000/svg">
 <path d="m47.328 98.5h-33.078c-3.8281 0-6.9297-3.1016-6.9297-6.9297 0-1.3828 1.1172-2.5 2.5-2.5 1.3789 0 2.5 1.1172 2.5 2.5 0 1.0664 0.86328 1.9297 1.9297 1.9297h33.078c1.0664 0 1.9336-0.86328 1.9336-1.9297 0-1.3828 1.1172-2.5 2.5-2.5 1.3789 0 2.5 1.1172 2.5 2.5 0 1.8359-0.73047 3.6016-2.0312 4.8984-1.3008 1.3008-3.0625 2.0312-4.9023 2.0312zm7.6719-13.27h-48.461c-2.7617 0-5-2.2383-5-5v-8.2305c0-6.3867 5.1758-11.566 11.562-11.57h35.367c6.375 0.023437 11.531 5.1953 11.531 11.57v8.2617c-0.015625 2.7461-2.25 4.9688-5 4.9688zm-48.48-5h48.48v-8.2305c-0.003906-3.6133-2.9336-6.543-6.5508-6.5508h-35.348c-3.6172 0.007812-6.5469 2.9375-6.5508 6.5508zm37.539-73.672c3.4648 3.0938 5.7383 7.3047 6.4219 11.898 0.68359 4.5977-0.26562 9.2852-2.6797 13.254-2.4219 3.7891-4.2266 7.9375-5.3516 12.289-0.23828 1-0.46875 2.0703-0.67969 3.1484 2.1367 0.88672 3.5273 2.9688 3.5312 5.2812v2.8516c0 1.3789-1.1211 2.5-2.5 2.5-1.3828 0-2.5-1.1211-2.5-2.5v-2.8203c0-0.39453-0.32031-0.71094-0.71094-0.71094h-17.59c-0.39062 0-0.71094 0.31641-0.71094 0.71094v2.8516-0.003906c0 1.3828-1.1172 2.5-2.5 2.5-1.3789 0-2.5-1.1172-2.5-2.5v-2.8477c0.003907-2.3125 1.3945-4.3945 3.5312-5.2812-0.21094-1.0781-0.44141-2.1289-0.67969-3.1602-0.96875-4.1797-2.6602-8.1602-5-11.758-3.5547-5.4336-4.2344-12.258-1.8203-18.285 2.4141-6.0273 7.6172-10.496 13.938-11.973 6.3242-1.4766 12.969 0.22266 17.801 4.5547zm-15 0c-5.1328 0.59375-9.5898 3.8047-11.777 8.4844-2.1875 4.6797-1.7891 10.16 1.0469 14.477 2.6562 4.0859 4.5742 8.6055 5.6719 13.352 0.30078 1.25 0.55859 2.5586 0.82031 3.8789h11.949c0.25-1.3203 0.51953-2.6289 0.82031-3.8711 1.2383-4.8789 3.2422-9.5312 5.9414-13.777 1.8047-2.9727 2.5156-6.4805 2.0039-9.918-0.51172-3.4375-2.2109-6.5898-4.8047-8.9023-3.1797-2.8281-7.4141-4.168-11.641-3.6914zm49.41 30.492-5.8398 5.8477-1.918-1.8984c-0.97656-0.97656-2.5625-0.97656-3.5391 0-0.98047 0.97656-0.98047 2.5625 0 3.5391l3.6914 3.6914h-0.003906c0.46875 0.46875 1.1055 0.73438 1.7695 0.73438 0.66406 0 1.3008-0.26562 1.7695-0.73438l7.6016-7.6406c0.97656-0.97656 0.97656-2.5625 0-3.5391-0.97656-0.97656-2.5625-0.97656-3.5391 0zm18.531 4.3398c-0.54688 0.73047-0.54688 1.7383 0 2.4688 1.3828 1.8398 1.7812 4.2344 1.0742 6.4258-0.70703 2.1875-2.4375 3.8945-4.6328 4.5742-0.875 0.26953-1.4648 1.0859-1.4531 2 0.027344 1.8672-0.69141 3.668-2 5-1.9102 1.9062-4.7344 2.5781-7.2969 1.7305-0.86719-0.27734-1.8164 0.035156-2.3516 0.76953-1.3242 1.8672-3.4727 2.9766-5.7656 2.9766-2.2891 0-4.4375-1.1094-5.7656-2.9766-0.53125-0.73828-1.4844-1.0469-2.3477-0.75781-2.5664 0.83594-5.3828 0.16406-7.2891-1.7422-1.3086-1.332-2.0273-3.1328-2-5 0.007813-0.91016-0.58203-1.7227-1.4531-2-2.1953-0.67969-3.9258-2.3867-4.6328-4.5742-0.70703-2.1914-0.30859-4.5859 1.0742-6.4258 0.54688-0.73047 0.54688-1.7383 0-2.4688-1.3828-1.8398-1.7812-4.2344-1.0742-6.4258 0.70703-2.1875 2.4375-3.8945 4.6328-4.5742 0.875-0.26953 1.4648-1.0859 1.4531-2-0.027344-1.8672 0.69141-3.668 2-5 1.9102-1.9062 4.7344-2.5742 7.2969-1.7305 0.86719 0.28125 1.8164-0.03125 2.3516-0.76953 1.3242-1.8672 3.4727-2.9766 5.7656-2.9766 2.2891 0 4.4375 1.1094 5.7656 2.9766 0.53516 0.73438 1.4844 1.043 2.3477 0.75781 2.5664-0.84375 5.3867-0.17188 7.3008 1.7305 1.3086 1.3359 2.0273 3.1328 2 5-0.015625 0.91406 0.57812 1.7305 1.4492 2 2.1992 0.68359 3.9258 2.3906 4.6367 4.5781 0.70703 2.1875 0.30469 4.582-1.0742 6.4219zm-4-3c0.40234-0.53125 0.51953-1.2266 0.32422-1.8633-0.19922-0.63672-0.69141-1.1367-1.3242-1.3477-3.0117-0.89844-5.0547-3.6875-5-6.8281 0.015625-0.55078-0.19922-1.082-0.58984-1.4727-0.55859-0.5625-1.3867-0.76172-2.1406-0.50781-2.9492 0.98438-6.1992-0.074219-8-2.6094-0.38672-0.54688-1.0156-0.87109-1.6836-0.87109-0.66797 0-1.2969 0.32422-1.6875 0.87109-1.8008 2.5352-5.0469 3.5938-8 2.6094-0.75-0.25391-1.582-0.054688-2.1367 0.50781-0.39062 0.39062-0.60547 0.92188-0.58984 1.4727 0.050781 3.1406-1.9922 5.9297-5 6.8281-0.63281 0.21094-1.125 0.71094-1.3242 1.3477-0.19922 0.63672-0.078125 1.332 0.32422 1.8633 1.8867 2.4961 1.8867 5.9414 0 8.4375-0.40234 0.53516-0.52344 1.2266-0.32422 1.8633 0.19922 0.63672 0.69141 1.1367 1.3242 1.3477 3.0078 0.89844 5.0508 3.6914 5 6.832-0.015625 0.55078 0.19922 1.082 0.58984 1.4688 0.55469 0.56641 1.3867 0.76562 2.1367 0.51172 2.9531-0.98437 6.1992 0.074219 8 2.6094 0.39062 0.54687 1.0195 0.875 1.6914 0.875s1.3008-0.32813 1.6914-0.875c1.8008-2.5352 5.0469-3.5938 8-2.6094 0.75391 0.25781 1.5898 0.058594 2.1484-0.51172 0.38281-0.39062 0.58594-0.91406 0.57031-1.4609-0.054688-3.1406 1.9883-5.9336 5-6.8281 0.63281-0.21094 1.125-0.71484 1.3242-1.3477 0.19531-0.63672 0.078125-1.332-0.32422-1.8633-1.8828-2.4961-1.8828-5.9336 0-8.4297z"/>
</svg>
